HIERARCHY
ROOT Hips
{
	OFFSET 0.000000 100.481300 0.000000
	CHANNELS 6 Xposition Yposition Zposition Xrotation Yrotation Zrotation
	JOINT Spine
	{
		OFFSET -0.279200 12.230698 -2.892100
		CHANNELS 3 Xrotation Yrotation Zrotation
		JOINT Spine1
		{
			OFFSET -0.325700 14.269203 -3.374200
			CHANNELS 3 Xrotation Yrotation Zrotation
			JOINT Spine2
			{
				OFFSET -0.372300 16.307602 -0.352600
				CHANNELS 3 Xrotation Yrotation Zrotation
				JOINT Neck
				{
					OFFSET -0.418800 17.814194 8.416900
					CHANNELS 3 Xrotation Yrotation Zrotation
					JOINT Head
					{
						OFFSET 0.000000 7.031097 3.806800
						CHANNELS 3 Xrotation Yrotation Zrotation
						JOINT HeadTop_End
						{
							OFFSET 0.000000 24.646606 12.978600
							CHANNELS 3 Xrotation Yrotation Zrotation
							End Site
							{
								OFFSET 0.000000 27.854965 0.000000
							}
						}
					}
				}
				JOINT LeftShoulder
				{
					OFFSET 16.952999 14.495407 -7.737500
					CHANNELS 3 Xrotation Yrotation Zrotation
					JOINT LeftArm
					{
						OFFSET 9.308998 -2.777710 0.208600
						CHANNELS 3 Xrotation Yrotation Zrotation
						JOINT LeftForeArm
						{
							OFFSET 29.972298 0.000000 0.000000
							CHANNELS 3 Xrotation Yrotation Zrotation
							JOINT LeftHand
							{
								OFFSET 26.026505 0.000000 0.000000
								CHANNELS 3 Xrotation Yrotation Zrotation
								JOINT LeftHandThumb1
								{
									OFFSET 12.240501 -7.147949 9.207150
									CHANNELS 3 Xrotation Yrotation Zrotation
									JOINT LeftHandThumb2
									{
										OFFSET 4.138618 -2.389435 2.389433
										CHANNELS 3 Xrotation Yrotation Zrotation
										JOINT LeftHandThumb3
										{
											OFFSET 2.726913 -1.574387 1.574386
											CHANNELS 3 Xrotation Yrotation Zrotation
											JOINT LeftHandThumb4
											{
												OFFSET 3.941010 -2.275345 2.275342
												CHANNELS 3 Xrotation Yrotation Zrotation
												End Site
												{
													OFFSET -0.005798 5.087799 0.009903
												}
											}
										}
									}
								}
								JOINT LeftHandIndex1
								{
									OFFSET 24.424698 -1.985611 5.953459
									CHANNELS 3 Xrotation Yrotation Zrotation
									JOINT LeftHandIndex2
									{
										OFFSET 6.426697 0.000000 0.000000
										CHANNELS 3 Xrotation Yrotation Zrotation
										JOINT LeftHandIndex3
										{
											OFFSET 5.337898 0.000000 0.000000
											CHANNELS 3 Xrotation Yrotation Zrotation
											JOINT LeftHandIndex4
											{
												OFFSET 4.409401 0.000000 0.000000
												CHANNELS 3 Xrotation Yrotation Zrotation
												End Site
												{
													OFFSET 0.000000 4.409363 0.014373
												}
											}
										}
									}
								}
								JOINT LeftHandMiddle1
								{
									OFFSET 23.810104 0.000000 0.000000
									CHANNELS 3 Xrotation Yrotation Zrotation
									JOINT LeftHandMiddle2
									{
										OFFSET 7.176498 0.000000 0.000000
										CHANNELS 3 Xrotation Yrotation Zrotation
										JOINT LeftHandMiddle3
										{
											OFFSET 6.774902 0.000000 0.000000
											CHANNELS 3 Xrotation Yrotation Zrotation
											JOINT LeftHandMiddle4
											{
												OFFSET 5.403328 0.000000 0.000000
												CHANNELS 3 Xrotation Yrotation Zrotation
												End Site
												{
													OFFSET -0.027702 5.403244 0.017414
												}
											}
										}
									}
								}
								JOINT LeftHandRing1
								{
									OFFSET 22.908401 -0.839279 -6.020567
									CHANNELS 3 Xrotation Yrotation Zrotation
									JOINT LeftHandRing2
									{
										OFFSET 6.337502 0.000000 0.000000
										CHANNELS 3 Xrotation Yrotation Zrotation
										JOINT LeftHandRing3
										{
											OFFSET 5.779297 0.000000 0.000000
											CHANNELS 3 Xrotation Yrotation Zrotation
											JOINT LeftHandRing4
											{
												OFFSET 4.965698 0.000000 0.000000
												CHANNELS 3 Xrotation Yrotation Zrotation
												End Site
												{
													OFFSET 0.000000 4.965668 0.016186
												}
											}
										}
									}
								}
								JOINT LeftHandPinky1
								{
									OFFSET 20.037003 -1.530319 -10.950146
									CHANNELS 3 Xrotation Yrotation Zrotation
									JOINT LeftHandPinky2
									{
										OFFSET 5.254700 0.000000 0.000000
										CHANNELS 3 Xrotation Yrotation Zrotation
										JOINT LeftHandPinky3
										{
											OFFSET 4.810204 0.000000 0.000000
											CHANNELS 3 Xrotation Yrotation Zrotation
											JOINT LeftHandPinky4
											{
												OFFSET 3.647202 0.000000 0.000000
												CHANNELS 3 Xrotation Yrotation Zrotation
												End Site
												{
													OFFSET 0.000000 3.647186 0.011889
												}
											}
										}
									}
								}
							}
						}
					}
				}
				JOINT RightShoulder
				{
					OFFSET -15.141001 14.495407 -7.737500
					CHANNELS 3 Xrotation Yrotation Zrotation
					JOINT RightArm
					{
						OFFSET -9.308998 -2.777710 0.208500
						CHANNELS 3 Xrotation Yrotation Zrotation
						JOINT RightForeArm
						{
							OFFSET -29.972300 0.000000 0.000000
							CHANNELS 3 Xrotation Yrotation Zrotation
							JOINT RightHand
							{
								OFFSET -26.026505 0.000000 0.000000
								CHANNELS 3 Xrotation Yrotation Zrotation
								JOINT RightHandThumb1
								{
									OFFSET -12.240601 -7.148026 9.207092
									CHANNELS 3 Xrotation Yrotation Zrotation
									JOINT RightHandThumb2
									{
										OFFSET -4.138618 -2.389435 2.389433
										CHANNELS 3 Xrotation Yrotation Zrotation
										JOINT RightHandThumb3
										{
											OFFSET -2.726974 -1.574417 1.574421
											CHANNELS 3 Xrotation Yrotation Zrotation
											JOINT RightHandThumb4
											{
												OFFSET -3.941010 -2.275345 2.275343
												CHANNELS 3 Xrotation Yrotation Zrotation
												End Site
												{
													OFFSET 0.005814 5.087799 0.009927
												}
											}
										}
									}
								}
								JOINT RightHandIndex1
								{
									OFFSET -24.424698 -1.985657 5.953444
									CHANNELS 3 Xrotation Yrotation Zrotation
									JOINT RightHandIndex2
									{
										OFFSET -6.426697 0.000000 0.000000
										CHANNELS 3 Xrotation Yrotation Zrotation
										JOINT RightHandIndex3
										{
											OFFSET -5.337898 0.000000 0.000000
											CHANNELS 3 Xrotation Yrotation Zrotation
											JOINT RightHandIndex4
											{
												OFFSET -4.409401 0.000000 0.000000
												CHANNELS 3 Xrotation Yrotation Zrotation
												End Site
												{
													OFFSET 0.000000 4.409363 0.014408
												}
											}
										}
									}
								}
								JOINT RightHandMiddle1
								{
									OFFSET -23.810097 0.000000 0.000000
									CHANNELS 3 Xrotation Yrotation Zrotation
									JOINT RightHandMiddle2
									{
										OFFSET -7.176498 0.000000 0.000000
										CHANNELS 3 Xrotation Yrotation Zrotation
										JOINT RightHandMiddle3
										{
											OFFSET -6.774902 0.000000 0.000000
											CHANNELS 3 Xrotation Yrotation Zrotation
											JOINT RightHandMiddle4
											{
												OFFSET -5.403328 0.000000 0.000000
												CHANNELS 3 Xrotation Yrotation Zrotation
												End Site
												{
													OFFSET 0.027702 5.403244 0.017457
												}
											}
										}
									}
								}
								JOINT RightHandRing1
								{
									OFFSET -22.908302 -0.839325 -6.020576
									CHANNELS 3 Xrotation Yrotation Zrotation
									JOINT RightHandRing2
									{
										OFFSET -6.337502 0.000000 0.000000
										CHANNELS 3 Xrotation Yrotation Zrotation
										JOINT RightHandRing3
										{
											OFFSET -5.779297 0.000000 0.000000
											CHANNELS 3 Xrotation Yrotation Zrotation
											JOINT RightHandRing4
											{
												OFFSET -4.965698 0.000000 0.000000
												CHANNELS 3 Xrotation Yrotation Zrotation
												End Site
												{
													OFFSET 0.000000 4.965668 0.016226
												}
											}
										}
									}
								}
								JOINT RightHandPinky1
								{
									OFFSET -20.037003 -1.530334 -10.950259
									CHANNELS 3 Xrotation Yrotation Zrotation
									JOINT RightHandPinky2
									{
										OFFSET -5.254700 0.000000 0.000000
										CHANNELS 3 Xrotation Yrotation Zrotation
										JOINT RightHandPinky3
										{
											OFFSET -4.810204 0.000000 0.000000
											CHANNELS 3 Xrotation Yrotation Zrotation
											JOINT RightHandPinky4
											{
												OFFSET -3.647202 0.000000 0.000000
												CHANNELS 3 Xrotation Yrotation Zrotation
												End Site
												{
													OFFSET 0.000000 3.647186 0.011917
												}
											}
										}
									}
								}
							}
						}
					}
				}
			}
		}
	}
	JOINT LeftUpLeg
	{
		OFFSET 15.427100 -6.655098 0.678600
		CHANNELS 3 Xrotation Yrotation Zrotation
		JOINT LeftLeg
		{
			OFFSET 4.081073 -39.591068 13.024000
			CHANNELS 3 Xrotation Yrotation Zrotation
			JOINT LeftFoot
			{
				OFFSET -4.081074 -37.707932 -15.979700
				CHANNELS 3 Xrotation Yrotation Zrotation
				JOINT LeftToeBase
				{
					OFFSET 5.346399 -15.068900 20.645000
					CHANNELS 3 Xrotation Yrotation Zrotation
					JOINT LeftToe_End
					{
						OFFSET 2.754700 0.931300 11.300900
						CHANNELS 3 Xrotation Yrotation Zrotation
						End Site
						{
							OFFSET 0.000000 11.669021 0.000000
						}
					}
				}
			}
		}
	}
	JOINT RightUpLeg
	{
		OFFSET -15.569500 -6.655098 0.678600
		CHANNELS 3 Xrotation Yrotation Zrotation
		JOINT RightLeg
		{
			OFFSET -4.081825 -39.591045 13.023800
			CHANNELS 3 Xrotation Yrotation Zrotation
			JOINT RightFoot
			{
				OFFSET 4.081824 -37.707954 -15.979600
				CHANNELS 3 Xrotation Yrotation Zrotation
				JOINT RightToeBase
				{
					OFFSET -5.346400 -15.068900 20.645000
					CHANNELS 3 Xrotation Yrotation Zrotation
					JOINT RightToe_End
					{
						OFFSET -2.754700 0.931300 11.300900
						CHANNELS 3 Xrotation Yrotation Zrotation
						End Site
						{
							OFFSET 0.000000 11.669021 0.000000
						}
					}
				}
			}
		}
	}
}
MOTION
Frames: 4
Frame Time: 0.033333
-3.134727 28.006332 4.848957 -42.631333 -36.615582 -24.834441 58.951950 7.492531 0.012280 10.734622 0.744705 -4.521330 17.520065 -0.085161 -4.562562 -10.626385 7.119770 2.460949 -15.542316 20.386158 10.545786 -0.000000 -0.000001 -0.000003 -37.559043 -4.830601 1.310671 -73.285922 -19.463807 -69.165439 0.000026 -49.482671 0.000025 -122.217479 3.139960 22.355325 1.567995 0.456393 2.719342 19.473182 -1.474904 7.636913 -4.536187 -9.613094 1.492968 0.000001 0.000002 -0.000000 -1.882823 2.129418 -39.817021 2.947103 5.081729 -60.200522 0.514388 2.402397 -24.167388 0.000003 0.000001 0.000001 0.405917 5.507053 -52.453172 3.387135 5.308620 -65.057456 0.282016 1.797459 -17.832374 -0.000002 -0.000001 0.000004 -0.074375 5.736791 -61.061427 4.422089 5.674481 -75.840406 0.582664 2.548966 -25.748003 0.000000 -0.000001 -0.000001 2.216807 7.072468 -64.435417 4.422628 5.674614 -75.845795 1.294120 3.673925 -38.798459 -0.000001 0.000000 0.000000 -42.139822 -9.769751 -7.575439 -51.815615 45.272119 94.913825 0.000021 103.657464 -0.000018 -37.420045 -24.461436 -24.583552 8.377144 -4.904131 11.022000 21.620209 -18.183902 -18.379233 -0.702912 -49.821200 -32.535152 0.000002 0.000001 0.000001 -1.101397 1.407132 15.159514 1.422356 -3.352175 45.974092 0.615850 -2.316445 29.773116 0.000000 0.000000 0.000000 3.413056 -7.186256 51.650239 6.296804 -4.359582 110.634680 0.248718 -1.503066 18.790282 0.000000 0.000000 0.000000 -3.349038 -2.600426 57.010571 5.440868 -4.590888 99.698168 1.689407 -3.590707 50.382242 -0.000000 -0.000001 0.000001 -3.996434 -3.303932 64.593837 4.058834 -4.618668 82.610523 2.315547 -4.026796 59.787228 -0.000001 0.000000 -0.000001 -84.112427 -19.955612 20.870244 111.232288 -10.036483 0.983565 9.880150 -3.443226 -14.910662 0.921422 0.000007 0.000003 0.000000 0.000004 0.000000 17.744662 6.845417 -179.637663 10.466292 37.913550 135.574201 47.347616 16.161297 18.987151 -37.368194 0.000012 0.000003 0.000000 -0.000001 -0.000000 
-3.278786 27.859436 5.379124 -41.960024 -36.860069 -24.592163 59.038509 7.821389 -0.416529 10.424576 0.694312 -4.599405 17.084207 -0.199104 -4.466819 -11.110454 6.876799 2.881570 -16.390694 20.055553 10.826577 0.000000 -0.000000 0.000000 -37.585240 -5.275625 2.243602 -72.064657 -22.802342 -66.860558 0.000019 -48.777513 0.000019 -126.866051 1.266809 20.097371 1.567995 0.456398 2.719342 19.473184 -1.474900 7.636912 -4.536184 -9.613095 1.492969 -0.000001 0.000000 -0.000001 -1.882823 2.129418 -39.817021 2.947097 5.081732 -60.200522 0.514380 2.402397 -24.167386 -0.000002 -0.000001 0.000002 0.405917 5.507050 -52.453165 3.387131 5.308619 -65.057456 0.282014 1.797465 -17.832377 0.000001 -0.000000 -0.000002 -0.074375 5.736797 -61.061427 4.422092 5.674482 -75.840399 0.582663 2.548966 -25.748008 -0.000002 -0.000003 -0.000001 2.216806 7.072470 -64.435410 4.422626 5.674616 -75.845795 1.294124 3.673924 -38.798463 0.000000 0.000001 0.000001 -42.432079 -9.094338 -7.755461 -51.058581 44.729673 93.242840 -0.000132 103.622009 0.000095 -37.389347 -24.379831 -24.200537 8.377144 -4.904130 11.021999 21.620209 -18.183903 -18.379235 -0.702906 -49.821200 -32.535152 -0.000001 0.000002 0.000002 -1.101398 1.407132 15.159511 1.422356 -3.352176 45.974092 0.615850 -2.316444 29.773119 -0.000000 -0.000000 0.000000 3.413056 -7.186256 51.650235 6.296804 -4.359582 110.634673 0.248716 -1.503065 18.790281 0.000000 -0.000000 0.000000 -3.349038 -2.600426 57.010571 5.440866 -4.590889 99.698168 1.689407 -3.590708 50.382235 0.000000 -0.000000 -0.000000 -3.996434 -3.303932 64.593850 4.058834 -4.618669 82.610530 2.315546 -4.026796 59.787228 -0.000000 0.000001 0.000000 -84.620559 -20.465566 19.615002 112.342207 -8.851474 1.539173 8.436198 -3.444238 -15.606726 1.184508 -0.000003 -0.000003 -0.000000 0.000000 -0.000000 20.185904 8.018330 -174.159497 12.093654 40.641391 132.416973 42.013713 14.832012 19.155913 -37.350975 -0.000035 0.000003 -0.000000 -0.000000 -0.000000 
-3.432770 27.784874 5.779015 -41.382501 -37.511706 -24.276967 59.864265 8.111294 -1.330741 9.984608 0.670551 -4.746921 16.509563 -0.308553 -4.434511 -11.824253 6.631397 3.368269 -17.670628 19.951787 11.048499 -0.000000 -0.000000 -0.000001 -37.602425 -6.134520 2.721450 -72.846174 -25.315222 -65.622299 0.000004 -46.592801 0.000001 -129.382170 0.475354 18.144876 1.567996 0.456397 2.719342 19.473178 -1.474908 7.636916 -4.536183 -9.613088 1.492967 0.000002 0.000004 -0.000001 -1.882823 2.129416 -39.817021 2.947099 5.081730 -60.200522 0.514389 2.402398 -24.167385 -0.000001 0.000001 -0.000002 0.405917 5.507049 -52.453172 3.387136 5.308621 -65.057449 0.282016 1.797462 -17.832379 -0.000001 0.000003 0.000002 -0.074375 5.736789 -61.061427 4.422093 5.674480 -75.840399 0.582665 2.548965 -25.748012 0.000001 -0.000002 -0.000000 2.216807 7.072465 -64.435417 4.422631 5.674615 -75.845788 1.294121 3.673927 -38.798463 0.000000 -0.000002 -0.000000 -42.667553 -8.183102 -7.561970 -50.386148 43.593095 90.949119 -0.000051 103.263301 0.000056 -37.570883 -24.161755 -23.384553 8.377144 -4.904130 11.022000 21.620209 -18.183903 -18.379238 -0.702911 -49.821196 -32.535148 -0.000002 -0.000001 0.000004 -1.101398 1.407132 15.159516 1.422355 -3.352176 45.974092 0.615850 -2.316444 29.773116 -0.000000 0.000000 0.000000 3.413056 -7.186256 51.650235 6.296806 -4.359581 110.634680 0.248718 -1.503065 18.790282 0.000000 -0.000001 0.000000 -3.349038 -2.600427 57.010568 5.440866 -4.590888 99.698161 1.689407 -3.590708 50.382235 0.000000 0.000000 -0.000000 -3.996435 -3.303933 64.593837 4.058834 -4.618669 82.610530 2.315547 -4.026797 59.787228 -0.000000 -0.000000 0.000002 -83.888233 -21.763757 19.575500 112.956425 -8.652378 1.000324 6.505228 -3.472947 -15.960100 1.491707 -0.000003 -0.000003 -0.000000 0.000001 -0.000000 23.857219 10.375770 -165.990549 14.708737 45.282665 128.607285 32.632615 12.158192 18.470951 -37.328807 -0.000015 -0.000004 -0.000000 -0.000000 0.000000 
-3.555086 27.924812 6.118366 -40.836472 -38.639244 -23.815128 61.306624 8.263184 -2.724999 9.459300 0.673107 -4.994153 15.843493 -0.416653 -4.501292 -12.689749 6.450204 3.810997 -19.310951 20.022766 11.295542 -0.000000 0.000000 0.000002 -37.614279 -7.385334 2.801494 -75.373965 -26.731340 -65.049014 0.000014 -43.749260 0.000001 -129.766177 0.698084 16.900497 1.567995 0.456398 2.719342 19.473178 -1.474910 7.636915 -4.536187 -9.613093 1.492967 -0.000001 0.000002 -0.000001 -1.882824 2.129418 -39.817018 2.947100 5.081735 -60.200529 0.514388 2.402397 -24.167385 0.000002 0.000000 -0.000004 0.405916 5.507053 -52.453172 3.387138 5.308621 -65.057463 0.282011 1.797462 -17.832379 0.000003 -0.000001 -0.000002 -0.074375 5.736795 -61.061427 4.422090 5.674481 -75.840392 0.582665 2.548965 -25.748005 0.000000 -0.000001 -0.000001 2.216807 7.072469 -64.435417 4.422630 5.674615 -75.845788 1.294118 3.673924 -38.798466 -0.000002 0.000002 -0.000000 -42.824316 -7.014773 -6.864507 -50.344672 42.165514 88.658389 -0.000135 102.655353 0.000130 -37.606489 -23.903685 -22.399149 8.377145 -4.904131 11.021999 21.620209 -18.183905 -18.379235 -0.702915 -49.821200 -32.535148 -0.000002 0.000000 0.000000 -1.101398 1.407132 15.159516 1.422356 -3.352176 45.974092 0.615850 -2.316444 29.773116 -0.000001 -0.000000 0.000000 3.413056 -7.186257 51.650232 6.296805 -4.359581 110.634673 0.248716 -1.503066 18.790279 0.000000 -0.000000 -0.000000 -3.349038 -2.600427 57.010571 5.440867 -4.590887 99.698168 1.689407 -3.590707 50.382242 -0.000000 -0.000000 0.000001 -3.996434 -3.303933 64.593837 4.058834 -4.618669 82.610530 2.315546 -4.026797 59.787228 -0.000000 0.000001 0.000001 -81.691262 -23.795129 21.896048 112.849799 -9.488722 -0.819112 5.080503 -3.698336 -16.410428 1.226948 -0.000000 0.000000 -0.000000 -0.000000 -0.000000 25.494694 16.689974 -151.205826 23.777034 54.449793 117.896141 19.409178 8.539551 16.303783 -37.331154 0.000004 0.000002 -0.000000 0.000000 0.000000 
